# xmcd CD database file
#
# Track frame offsets:
#	150
#	14438
#	26226
#	39894
#	51989
#	66246
#	79352
#	92452
#	105438
#	120224
#	130640
#	144085
#	160246
#	176793
#
# Disc length: 2591 seconds
#
# Revision: 0
# Processed by: cddbd v1.5.2PL0 Copyright (c) Steve Scherf et al.
# Submitted via: CDex 1.51
#
DISCID=ac0a1d0e
DTITLE=Bartl Gensbichler and seine Schilehrermusi - 25 Jahre Schilehrermusi [CD1]
DYEAR=2008
DGENRE=Volksmusik
TTITLE0=Herzlich willkommen
TTITLE1=Es Vierthalert
TTITLE2=Das Saalbachlied
TTITLE3=Glemm dich fit
TTITLE4=Auf der Alm, da gibt's koa Sünd
TTITLE5=In der Mosertracht
TTITLE6=Spät am Abend
TTITLE7=Gipfelkreuz und Gletschereis
TTITLE8=Jubiläumsmarsch
TTITLE9=Sausteig'n Boarischer
TTITLE10=Engel und Teufel
TTITLE11=Smile for you
TTITLE12=Granada
TTITLE13=Skisongs For Austria
EXTD=YEAR: 2008
EXTT0=
EXTT1=
EXTT2=
EXTT3=
EXTT4=
EXTT5=
EXTT6=
EXTT7=
EXTT8=
EXTT9=
EXTT10=
EXTT11=
EXTT12=
EXTT13=
PLAYORDER=
